<?xml version="1.0" standalone="no"?><!DOCTYPE svg PUBLIC "-//W3C//DTD SVG 1.1//EN" "http://www.w3.org/Graphics/SVG/1.1/DTD/svg11.dtd"><svg t="1636535926219" class="icon" viewBox="0 0 1024 1024" version="1.1" xmlns="http://www.w3.org/2000/svg" p-id="768" xmlns:xlink="http://www.w3.org/1999/xlink" width="200" height="200"><defs><style type="text/css"></style></defs><path d="M856.669439 797.803769c-36.043863 41.880511-85.706572 82.788248-147.759359 121.54564-103.677304 64.766316-206.023443 101.373364-210.221734 102.909324a40.446948 40.446948 0 0 1-11.570899 1.740755h-0.870377a32.920744 32.920744 0 0 1-11.622098-2.047947c-4.198291-1.53596-104.957271-38.09181-207.098616-102.909324-61.182409-38.706194-110.077138-79.61393-145.609014-121.648037C75.019361 741.894823 51.21198 684.091526 51.21198 625.673844V190.638755c0-14.23323 8.806171-27.135294 22.169024-32.152764L487.629434 2.227654a33.791121 33.791121 0 0 1 24.728957 0.255993l394.485743 156.360735c13.106859 5.171066 21.708236 17.817137 21.657037 31.896771v435.035089c0 58.571277-24.165772 116.374574-71.831732 172.027527z m3.174317-583.818421L499.353929 71.089864l-378.358163 143.253875v411.330105c0 97.943053 99.018226 182.164864 183.188837 235.513877a1134.050515 1134.050515 0 0 0 182.574453 92.055207c28.671255-11.058912 108.233986-43.672465 186.619148-92.823187 85.092188-53.246616 186.465552-137.212432 186.465552-234.745897V213.985348z m-210.221734 451.213869c0 20.581865-3.430311 37.119035-10.290933 49.662709a56.93292 56.93292 0 0 1-30.207214 26.418513c-13.311654 5.119867-60.414429 7.986992-141.359525 8.498979-4.812675-26.572109-11.263707-52.734629-19.301898-78.48756 25.599334 1.843152 49.099523 2.764728 70.654163 2.764729 14.847614 0 25.496937-0.76798 31.947969-2.303941a26.572109 26.572109 0 0 0 15.973985-11.5197c4.24949-6.14384 6.348635-14.438025 6.348635-24.933752v-277.496785H405.813961V288.325816h335.197685v69.374196h-91.389624v307.448006z m-382.966043-372.726309l59.390456-33.995916c20.684262 27.69848 42.69969 60.312032 66.046283 97.789457l-65.02231 38.962187c-23.346593-43.518869-43.518869-77.821977-60.414429-102.806927z m91.389624 336.272857c15.922786-10.137336 40.139756-27.032897 72.650911-50.686683 2.047947 26.264917 4.915072 52.427437 8.652575 78.538758-61.643197 40.498147-102.960523 72.087726-123.951977 94.717538l-37.579823-51.710656c8.44778-10.137336 12.69727-24.319368 12.69727-42.494895V494.502855H238.701506V428.661367h119.344097v200.084398z" fill="#666666" p-id="769"></path></svg>